<svg width="821" height="222" viewBox="0 0 821 222" fill="none" xmlns="http://www.w3.org/2000/svg">
    <g clip-path="url(#clip0_1_2)">
        <rect width="821" height="222" fill="white" />
        <g filter="url(#filter0_i_1_2)">
            <rect x="23" y="23" width="775" height="176" fill="#161616" />
        </g>
        <rect x="11.5" y="11.5" width="798" height="199" stroke="#424242" stroke-width="23" />
        <g filter="url(#filter1_d_1_2)">
            <path
                d="M61.5859 155.385H94.6035V135.902L46 107.807V53.2559H111.01V86.6836H95.6289V68.4316H62.4062V93.041L110.6 120.932V170.561L46 170.766V137.133H61.5859V155.385Z"
                fill="#FF8A00" />
            <path
                d="M201.244 170.766H163.51V93.041H144.643V78.2754H163.51V51H179.096V78.2754H201.244V93.041H179.096V156H201.244V170.766Z"
                fill="#FF8A00" />
            <path
                d="M283.48 116.215V93.041H234.877V78.2754H299.887V170.766H235.287V116.215H283.48ZM283.48 131.186H250.463V155.59H283.48V131.186Z"
                fill="#FF8A00" />
            <path
                d="M390.121 170.766H352.387V93.041H333.52V78.2754H352.387V51H367.973V78.2754H390.121V93.041H367.973V156H390.121V170.766Z"
                fill="#FF8A00" />
            <path
                d="M464.564 170.766H448.979V68.2266H423.549V53.2559H488.764V68.2266H464.564V170.766Z"
                fill="#FF8A00" />
            <path
                d="M561.361 93.4512L538.803 93.6562V170.766H522.396V78.2754H576.947V111.908H561.361V93.4512Z"
                fill="#FF8A00" />
            <path
                d="M654.877 116.215V93.041H606.273V78.2754H671.283V170.766H606.684V116.215H654.877ZM654.877 131.186H621.859V155.59H654.877V131.186Z"
                fill="#FF8A00" />
            <path
                d="M776.283 170.766H752.084L723.578 130.16H720.502V170.766H704.916V53.2559H720.502V117.65L751.879 78.4805H774.232L735.268 122.982L776.283 170.766Z"
                fill="#FF8A00" />
        </g>
    </g>
    <defs>
        <filter id="filter0_i_1_2" x="0" y="0" width="821" height="222" filterUnits="userSpaceOnUse"
            color-interpolation-filters="sRGB">
            <feFlood flood-opacity="0" result="BackgroundImageFix" />
            <feBlend mode="normal" in="SourceGraphic" in2="BackgroundImageFix" result="shape" />
            <feColorMatrix in="SourceAlpha" type="matrix"
                values="0 0 0 0 0 0 0 0 0 0 0 0 0 0 0 0 0 0 127 0" result="hardAlpha" />
            <feMorphology radius="0" operator="erode" in="SourceAlpha"
                result="effect1_innerShadow_1_2" />
            <feOffset />
            <feGaussianBlur stdDeviation="3.5" />
            <feComposite in2="hardAlpha" operator="arithmetic" k2="-1" k3="1" />
            <feColorMatrix type="matrix" values="0 0 0 0 0 0 0 0 0 0 0 0 0 0 0 0 0 0 0.5 0" />
            <feBlend mode="normal" in2="shape" result="effect1_innerShadow_1_2" />
        </filter>
        <filter id="filter1_d_1_2" x="30" y="35" width="762.283" height="151.766"
            filterUnits="userSpaceOnUse" color-interpolation-filters="sRGB">
            <feFlood flood-opacity="0" result="BackgroundImageFix" />
            <feColorMatrix in="SourceAlpha" type="matrix"
                values="0 0 0 0 0 0 0 0 0 0 0 0 0 0 0 0 0 0 127 0" result="hardAlpha" />
            <feOffset />
            <feGaussianBlur stdDeviation="8" />
            <feComposite in2="hardAlpha" operator="out" />
            <feColorMatrix type="matrix" values="0 0 0 0 1 0 0 0 0 0.42 0 0 0 0 0 0 0 0 0.5 0" />
            <feBlend mode="normal" in2="BackgroundImageFix" result="effect1_dropShadow_1_2" />
            <feBlend mode="normal" in="SourceGraphic" in2="effect1_dropShadow_1_2" result="shape" />
        </filter>
        <clipPath id="clip0_1_2">
            <rect width="821" height="222" fill="white" />
        </clipPath>
    </defs>
</svg>