<svg width="505" height="222" viewBox="0 0 505 222" fill="none" xmlns="http://www.w3.org/2000/svg">
<g clip-path="url(#clip0_1_2)">
<rect width="505" height="222" fill="white"/>
<g filter="url(#filter0_i_1_2)">
<rect x="22" y="23" width="460" height="176" fill="#161616"/>
</g>
<rect x="10.5" y="11.5" width="483" height="199" stroke="#424242" stroke-width="23"/>
<mask id="mask0_1_2" style="mask-type:luminance" maskUnits="userSpaceOnUse" x="436" y="199" width="46" height="23">
<path d="M436 199V222H482V199H436Z" fill="white"/>
</mask>
<g mask="url(#mask0_1_2)">
<path d="M436 199V222H482V199H436Z" fill="#012169"/>
<path d="M436 199L482 222L436 199ZM482 199L436 222L482 199Z" fill="black"/>
<path d="M436 199L482 222M482 199L436 222" stroke="white" stroke-width="4.6"/>
<mask id="mask1_1_2" style="mask-type:luminance" maskUnits="userSpaceOnUse" x="436" y="199" width="46" height="23">
<path d="M459 210.5H482V222L459 210.5ZM459 210.5V222H436L459 210.5ZM459 210.5H436V199L459 210.5ZM459 210.5V199H482L459 210.5Z" fill="white"/>
</mask>
<g mask="url(#mask1_1_2)">
<path d="M436 199L482 222L436 199ZM482 199L436 222L482 199Z" fill="black"/>
<path d="M436 199L482 222M482 199L436 222" stroke="#C8102E" stroke-width="3.06667"/>
</g>
<path d="M459 199V222V199ZM436 210.5H482H436Z" fill="black"/>
<path d="M459 199V222M436 210.5H482" stroke="white" stroke-width="7.66667"/>
<path d="M459 199V222V199ZM436 210.5H482H436Z" fill="black"/>
<path d="M459 199V222M436 210.5H482" stroke="#C8102E" stroke-width="4.6"/>
</g>
<g filter="url(#filter1_d_1_2)">
<path d="M93.376 77.2H82.88V66.704H93.376V77.2ZM106.176 90H95.68V79.504H106.176V90ZM80.576 77.2H70.08V66.704H80.576V77.2ZM106.176 102.8H95.68V92.304H106.176V102.8ZM67.776 77.2H57.28V66.704H67.776V77.2ZM54.976 77.2H44.48V66.704H54.976V77.2ZM93.376 115.6H82.88V105.104H93.376V115.6ZM106.176 128.4H95.68V117.904H106.176V128.4ZM54.976 90H44.48V79.504H54.976V90ZM80.576 115.6H70.08V105.104H80.576V115.6ZM106.176 141.2H95.68V130.704H106.176V141.2ZM54.976 102.8H44.48V92.304H54.976V102.8ZM67.776 115.6H57.28V105.104H67.776V115.6ZM54.976 115.6H44.48V105.104H54.976V115.6ZM93.376 154H82.88V143.504H93.376V154ZM54.976 128.4H44.48V117.904H54.976V128.4ZM80.576 154H70.08V143.504H80.576V154ZM54.976 141.2H44.48V130.704H54.976V141.2ZM67.776 154H57.28V143.504H67.776V154ZM54.976 154H44.48V143.504H54.976V154ZM164.001 128.4H153.505V117.904H164.001V128.4ZM151.201 128.4H140.705V117.904H151.201V128.4ZM138.401 128.4H127.905V117.904H138.401V128.4ZM234.626 77.2H224.13V66.704H234.626V77.2ZM247.426 90H236.93V79.504H247.426V90ZM221.826 77.2H211.33V66.704H221.826V77.2ZM209.026 77.2H198.53V66.704H209.026V77.2ZM247.426 128.4H236.93V117.904H247.426V128.4ZM234.626 115.6H224.13V105.104H234.626V115.6ZM196.226 90H185.73V79.504H196.226V90ZM247.426 141.2H236.93V130.704H247.426V141.2ZM221.826 115.6H211.33V105.104H221.826V115.6ZM196.226 102.8H185.73V92.304H196.226V102.8ZM209.026 115.6H198.53V105.104H209.026V115.6ZM234.626 154H224.13V143.504H234.626V154ZM221.826 154H211.33V143.504H221.826V154ZM196.226 141.2H185.73V130.704H196.226V141.2ZM209.026 154H198.53V143.504H209.026V154ZM305.251 77.2H294.755V66.704H305.251V77.2ZM292.451 77.2H281.955V66.704H292.451V77.2ZM279.651 77.2H269.155V66.704H279.651V77.2ZM292.451 90H281.955V79.504H292.451V90ZM292.451 102.8H281.955V92.304H292.451V102.8ZM292.451 115.6H281.955V105.104H292.451V115.6ZM292.451 128.4H281.955V117.904H292.451V128.4ZM292.451 141.2H281.955V130.704H292.451V141.2ZM305.251 154H294.755V143.504H305.251V154ZM292.451 154H281.955V143.504H292.451V154ZM279.651 154H269.155V143.504H279.651V154ZM388.676 77.2H378.18V66.704H388.676V77.2ZM375.876 77.2H365.38V66.704H375.876V77.2ZM363.076 77.2H352.58V66.704H363.076V77.2ZM350.276 77.2H339.78V66.704H350.276V77.2ZM363.076 90H352.58V79.504H363.076V90ZM337.476 77.2H326.98V66.704H337.476V77.2ZM363.076 102.8H352.58V92.304H363.076V102.8ZM363.076 115.6H352.58V105.104H363.076V115.6ZM363.076 128.4H352.58V117.904H363.076V128.4ZM363.076 141.2H352.58V130.704H363.076V141.2ZM363.076 154H352.58V143.504H363.076V154ZM459.301 77.2H448.805V66.704H459.301V77.2ZM446.501 77.2H436.005V66.704H446.501V77.2ZM433.701 77.2H423.205V66.704H433.701V77.2ZM420.901 77.2H410.405V66.704H420.901V77.2ZM459.301 115.6H448.805V105.104H459.301V115.6ZM408.101 77.2H397.605V66.704H408.101V77.2ZM446.501 115.6H436.005V105.104H446.501V115.6ZM408.101 90H397.605V79.504H408.101V90ZM433.701 115.6H423.205V105.104H433.701V115.6ZM408.101 102.8H397.605V92.304H408.101V102.8ZM420.901 115.6H410.405V105.104H420.901V115.6ZM459.301 154H448.805V143.504H459.301V154ZM408.101 115.6H397.605V105.104H408.101V115.6ZM446.501 154H436.005V143.504H446.501V154ZM408.101 128.4H397.605V117.904H408.101V128.4ZM433.701 154H423.205V143.504H433.701V154ZM408.101 141.2H397.605V130.704H408.101V141.2ZM420.901 154H410.405V143.504H420.901V154ZM408.101 154H397.605V143.504H408.101V154Z" fill="#F89500"/>
</g>
</g>
<defs>
<filter id="filter0_i_1_2" x="-1" y="0" width="506" height="222" filterUnits="userSpaceOnUse" color-interpolation-filters="sRGB">
<feFlood flood-opacity="0" result="BackgroundImageFix"/>
<feBlend mode="normal" in="SourceGraphic" in2="BackgroundImageFix" result="shape"/>
<feColorMatrix in="SourceAlpha" type="matrix" values="0 0 0 0 0 0 0 0 0 0 0 0 0 0 0 0 0 0 127 0" result="hardAlpha"/>
<feOffset/>
<feGaussianBlur stdDeviation="3.5"/>
<feComposite in2="hardAlpha" operator="arithmetic" k2="-1" k3="1"/>
<feColorMatrix type="matrix" values="0 0 0 0 0 0 0 0 0 0 0 0 0 0 0 0 0 0 0.5 0"/>
<feBlend mode="normal" in2="shape" result="effect1_innerShadow_1_2"/>
</filter>
<filter id="filter1_d_1_2" x="35.48" y="57.704" width="432.821" height="105.296" filterUnits="userSpaceOnUse" color-interpolation-filters="sRGB">
<feFlood flood-opacity="0" result="BackgroundImageFix"/>
<feColorMatrix in="SourceAlpha" type="matrix" values="0 0 0 0 0 0 0 0 0 0 0 0 0 0 0 0 0 0 127 0" result="hardAlpha"/>
<feOffset/>
<feGaussianBlur stdDeviation="4.5"/>
<feComposite in2="hardAlpha" operator="out"/>
<feColorMatrix type="matrix" values="0 0 0 0 1 0 0 0 0 0.720565 0 0 0 0 0.3 0 0 0 0.32 0"/>
<feBlend mode="normal" in2="BackgroundImageFix" result="effect1_dropShadow_1_2"/>
<feBlend mode="normal" in="SourceGraphic" in2="effect1_dropShadow_1_2" result="shape"/>
</filter>
<clipPath id="clip0_1_2">
<rect width="505" height="222" fill="white"/>
</clipPath>
</defs>
</svg>
